<svg xmlns="http://www.w3.org/2000/svg" viewBox="0 0 160 130" width="160" height="130">
  <text x="80" y="18" text-anchor="middle" font-family="sans-serif" font-size="11" font-weight="bold" fill="#333">Sample Heatmap</text>
  <!-- dendrogram on top -->
  <line x1="40" y1="22" x2="40" y2="25" stroke="#666" stroke-width="1"/>
  <line x1="55" y1="22" x2="55" y2="25" stroke="#666" stroke-width="1"/>
  <line x1="70" y1="22" x2="70" y2="25" stroke="#666" stroke-width="1"/>
  <line x1="85" y1="22" x2="85" y2="25" stroke="#666" stroke-width="1"/>
  <line x1="100" y1="22" x2="100" y2="25" stroke="#666" stroke-width="1"/>
  <line x1="115" y1="22" x2="115" y2="25" stroke="#666" stroke-width="1"/>
  <line x1="40" y1="20" x2="70" y2="20" stroke="#666" stroke-width="1"/>
  <line x1="55" y1="20" x2="100" y2="19" stroke="#666" stroke-width="1"/>
  <line x1="85" y1="19" x2="115" y2="19" stroke="#666" stroke-width="1"/>
  <line x1="55" y1="20" x2="100" y2="19" stroke="#666" stroke-width="1"/>
  <!-- top color bar (metadata) -->
  <rect x="30" y="26" width="18" height="5" rx="1" fill="#E57373"/>
  <rect x="48" y="26" width="18" height="5" rx="1" fill="#E57373"/>
  <rect x="66" y="26" width="18" height="5" rx="1" fill="#64B5F6"/>
  <rect x="84" y="26" width="18" height="5" rx="1" fill="#64B5F6"/>
  <rect x="102" y="26" width="18" height="5" rx="1" fill="#E57373"/>
  <rect x="120" y="26" width="18" height="5" rx="1" fill="#64B5F6"/>
  <!-- heatmap rows (MAGs x Samples) -->
  <!-- row 1 -->
  <rect x="30" y="32" width="6" height="8" fill="#1a237e" opacity="0.9"/>
  <rect x="36" y="32" width="6" height="8" fill="#283593" opacity="0.8"/>
  <rect x="42" y="32" width="6" height="8" fill="#e8eaf6" opacity="0.2"/>
  <rect x="48" y="32" width="6" height="8" fill="#5c6bc0" opacity="0.6"/>
  <rect x="54" y="32" width="6" height="8" fill="#1a237e" opacity="0.9"/>
  <rect x="60" y="32" width="6" height="8" fill="#c5cae9" opacity="0.3"/>
  <rect x="66" y="32" width="6" height="8" fill="#3f51b5" opacity="0.7"/>
  <rect x="72" y="32" width="6" height="8" fill="#9fa8da" opacity="0.4"/>
  <rect x="78" y="32" width="6" height="8" fill="#283593" opacity="0.8"/>
  <rect x="84" y="32" width="6" height="8" fill="#7986cb" opacity="0.5"/>
  <rect x="90" y="32" width="6" height="8" fill="#e8eaf6" opacity="0.2"/>
  <rect x="96" y="32" width="6" height="8" fill="#1a237e" opacity="0.9"/>
  <rect x="102" y="32" width="6" height="8" fill="#5c6bc0" opacity="0.6"/>
  <rect x="108" y="32" width="6" height="8" fill="#c5cae9" opacity="0.3"/>
  <rect x="114" y="32" width="6" height="8" fill="#3f51b5" opacity="0.7"/>
  <rect x="120" y="32" width="6" height="8" fill="#9fa8da" opacity="0.4"/>
  <rect x="126" y="32" width="6" height="8" fill="#283593" opacity="0.8"/>
  <!-- row 2 -->
  <rect x="30" y="40" width="6" height="8" fill="#9fa8da" opacity="0.4"/>
  <rect x="36" y="40" width="6" height="8" fill="#e8eaf6" opacity="0.2"/>
  <rect x="42" y="40" width="6" height="8" fill="#283593" opacity="0.8"/>
  <rect x="48" y="40" width="6" height="8" fill="#1a237e" opacity="0.9"/>
  <rect x="54" y="40" width="6" height="8" fill="#c5cae9" opacity="0.3"/>
  <rect x="60" y="40" width="6" height="8" fill="#5c6bc0" opacity="0.6"/>
  <rect x="66" y="40" width="6" height="8" fill="#7986cb" opacity="0.5"/>
  <rect x="72" y="40" width="6" height="8" fill="#3f51b5" opacity="0.7"/>
  <rect x="78" y="40" width="6" height="8" fill="#e8eaf6" opacity="0.2"/>
  <rect x="84" y="40" width="6" height="8" fill="#1a237e" opacity="0.9"/>
  <rect x="90" y="40" width="6" height="8" fill="#283593" opacity="0.8"/>
  <rect x="96" y="40" width="6" height="8" fill="#9fa8da" opacity="0.4"/>
  <rect x="102" y="40" width="6" height="8" fill="#c5cae9" opacity="0.3"/>
  <rect x="108" y="40" width="6" height="8" fill="#5c6bc0" opacity="0.6"/>
  <rect x="114" y="40" width="6" height="8" fill="#1a237e" opacity="0.9"/>
  <rect x="120" y="40" width="6" height="8" fill="#7986cb" opacity="0.5"/>
  <rect x="126" y="40" width="6" height="8" fill="#e8eaf6" opacity="0.2"/>
  <!-- row 3 -->
  <rect x="30" y="48" width="6" height="8" fill="#5c6bc0" opacity="0.6"/>
  <rect x="36" y="48" width="6" height="8" fill="#1a237e" opacity="0.9"/>
  <rect x="42" y="48" width="6" height="8" fill="#3f51b5" opacity="0.7"/>
  <rect x="48" y="48" width="6" height="8" fill="#c5cae9" opacity="0.3"/>
  <rect x="54" y="48" width="6" height="8" fill="#9fa8da" opacity="0.4"/>
  <rect x="60" y="48" width="6" height="8" fill="#e8eaf6" opacity="0.2"/>
  <rect x="66" y="48" width="6" height="8" fill="#1a237e" opacity="0.9"/>
  <rect x="72" y="48" width="6" height="8" fill="#283593" opacity="0.8"/>
  <rect x="78" y="48" width="6" height="8" fill="#5c6bc0" opacity="0.6"/>
  <rect x="84" y="48" width="6" height="8" fill="#7986cb" opacity="0.5"/>
  <rect x="90" y="48" width="6" height="8" fill="#c5cae9" opacity="0.3"/>
  <rect x="96" y="48" width="6" height="8" fill="#3f51b5" opacity="0.7"/>
  <rect x="102" y="48" width="6" height="8" fill="#e8eaf6" opacity="0.2"/>
  <rect x="108" y="48" width="6" height="8" fill="#1a237e" opacity="0.9"/>
  <rect x="114" y="48" width="6" height="8" fill="#9fa8da" opacity="0.4"/>
  <rect x="120" y="48" width="6" height="8" fill="#283593" opacity="0.8"/>
  <rect x="126" y="48" width="6" height="8" fill="#5c6bc0" opacity="0.6"/>
  <!-- row 4 -->
  <rect x="30" y="56" width="6" height="8" fill="#e8eaf6" opacity="0.2"/>
  <rect x="36" y="56" width="6" height="8" fill="#7986cb" opacity="0.5"/>
  <rect x="42" y="56" width="6" height="8" fill="#1a237e" opacity="0.9"/>
  <rect x="48" y="56" width="6" height="8" fill="#283593" opacity="0.8"/>
  <rect x="54" y="56" width="6" height="8" fill="#3f51b5" opacity="0.7"/>
  <rect x="60" y="56" width="6" height="8" fill="#5c6bc0" opacity="0.6"/>
  <rect x="66" y="56" width="6" height="8" fill="#c5cae9" opacity="0.3"/>
  <rect x="72" y="56" width="6" height="8" fill="#9fa8da" opacity="0.4"/>
  <rect x="78" y="56" width="6" height="8" fill="#1a237e" opacity="0.9"/>
  <rect x="84" y="56" width="6" height="8" fill="#e8eaf6" opacity="0.2"/>
  <rect x="90" y="56" width="6" height="8" fill="#5c6bc0" opacity="0.6"/>
  <rect x="96" y="56" width="6" height="8" fill="#7986cb" opacity="0.5"/>
  <rect x="102" y="56" width="6" height="8" fill="#283593" opacity="0.8"/>
  <rect x="108" y="56" width="6" height="8" fill="#c5cae9" opacity="0.3"/>
  <rect x="114" y="56" width="6" height="8" fill="#3f51b5" opacity="0.7"/>
  <rect x="120" y="56" width="6" height="8" fill="#1a237e" opacity="0.9"/>
  <rect x="126" y="56" width="6" height="8" fill="#9fa8da" opacity="0.4"/>
  <!-- row 5 -->
  <rect x="30" y="64" width="6" height="8" fill="#283593" opacity="0.8"/>
  <rect x="36" y="64" width="6" height="8" fill="#3f51b5" opacity="0.7"/>
  <rect x="42" y="64" width="6" height="8" fill="#9fa8da" opacity="0.4"/>
  <rect x="48" y="64" width="6" height="8" fill="#c5cae9" opacity="0.3"/>
  <rect x="54" y="64" width="6" height="8" fill="#7986cb" opacity="0.5"/>
  <rect x="60" y="64" width="6" height="8" fill="#1a237e" opacity="0.9"/>
  <rect x="66" y="64" width="6" height="8" fill="#e8eaf6" opacity="0.2"/>
  <rect x="72" y="64" width="6" height="8" fill="#5c6bc0" opacity="0.6"/>
  <rect x="78" y="64" width="6" height="8" fill="#283593" opacity="0.8"/>
  <rect x="84" y="64" width="6" height="8" fill="#3f51b5" opacity="0.7"/>
  <rect x="90" y="64" width="6" height="8" fill="#1a237e" opacity="0.9"/>
  <rect x="96" y="64" width="6" height="8" fill="#c5cae9" opacity="0.3"/>
  <rect x="102" y="64" width="6" height="8" fill="#9fa8da" opacity="0.4"/>
  <rect x="108" y="64" width="6" height="8" fill="#7986cb" opacity="0.5"/>
  <rect x="114" y="64" width="6" height="8" fill="#e8eaf6" opacity="0.2"/>
  <rect x="120" y="64" width="6" height="8" fill="#5c6bc0" opacity="0.6"/>
  <rect x="126" y="64" width="6" height="8" fill="#1a237e" opacity="0.9"/>
  <!-- row 6 (sparser) -->
  <rect x="30" y="72" width="6" height="8" fill="#c5cae9" opacity="0.3"/>
  <rect x="36" y="72" width="6" height="8" fill="#9fa8da" opacity="0.4"/>
  <rect x="42" y="72" width="6" height="8" fill="#7986cb" opacity="0.5"/>
  <rect x="48" y="72" width="6" height="8" fill="#5c6bc0" opacity="0.6"/>
  <rect x="54" y="72" width="6" height="8" fill="#3f51b5" opacity="0.7"/>
  <rect x="60" y="72" width="6" height="8" fill="#283593" opacity="0.8"/>
  <rect x="66" y="72" width="6" height="8" fill="#1a237e" opacity="0.9"/>
  <rect x="72" y="72" width="6" height="8" fill="#e8eaf6" opacity="0.2"/>
  <rect x="78" y="72" width="6" height="8" fill="#c5cae9" opacity="0.3"/>
  <rect x="84" y="72" width="6" height="8" fill="#9fa8da" opacity="0.4"/>
  <rect x="90" y="72" width="6" height="8" fill="#7986cb" opacity="0.5"/>
  <rect x="96" y="72" width="6" height="8" fill="#5c6bc0" opacity="0.6"/>
  <rect x="102" y="72" width="6" height="8" fill="#3f51b5" opacity="0.7"/>
  <rect x="108" y="72" width="6" height="8" fill="#283593" opacity="0.8"/>
  <rect x="114" y="72" width="6" height="8" fill="#1a237e" opacity="0.9"/>
  <rect x="120" y="72" width="6" height="8" fill="#e8eaf6" opacity="0.2"/>
  <rect x="126" y="72" width="6" height="8" fill="#c5cae9" opacity="0.3"/>
  <!-- row 7 -->
  <rect x="30" y="80" width="6" height="8" fill="#7986cb" opacity="0.5"/>
  <rect x="36" y="80" width="6" height="8" fill="#e8eaf6" opacity="0.2"/>
  <rect x="42" y="80" width="6" height="8" fill="#5c6bc0" opacity="0.6"/>
  <rect x="48" y="80" width="6" height="8" fill="#1a237e" opacity="0.9"/>
  <rect x="54" y="80" width="6" height="8" fill="#9fa8da" opacity="0.4"/>
  <rect x="60" y="80" width="6" height="8" fill="#283593" opacity="0.8"/>
  <rect x="66" y="80" width="6" height="8" fill="#c5cae9" opacity="0.3"/>
  <rect x="72" y="80" width="6" height="8" fill="#3f51b5" opacity="0.7"/>
  <rect x="78" y="80" width="6" height="8" fill="#e8eaf6" opacity="0.2"/>
  <rect x="84" y="80" width="6" height="8" fill="#1a237e" opacity="0.9"/>
  <rect x="90" y="80" width="6" height="8" fill="#283593" opacity="0.8"/>
  <rect x="96" y="80" width="6" height="8" fill="#5c6bc0" opacity="0.6"/>
  <rect x="102" y="80" width="6" height="8" fill="#9fa8da" opacity="0.4"/>
  <rect x="108" y="80" width="6" height="8" fill="#c5cae9" opacity="0.3"/>
  <rect x="114" y="80" width="6" height="8" fill="#7986cb" opacity="0.5"/>
  <rect x="120" y="80" width="6" height="8" fill="#3f51b5" opacity="0.7"/>
  <rect x="126" y="80" width="6" height="8" fill="#1a237e" opacity="0.9"/>
  <!-- x-axis -->
  <line x1="30" y1="90" x2="135" y2="90" stroke="#555" stroke-width="1"/>
  <text x="83" y="100" text-anchor="middle" font-family="sans-serif" font-size="7" fill="#777">Samples</text>
  <text x="10" y="62" text-anchor="middle" font-family="sans-serif" font-size="7" fill="#777" transform="rotate(-90,10,62)">MAGs</text>
  <!-- legend -->
  <rect x="20" y="106" width="6" height="6" rx="1" fill="#1a237e"/>
  <text x="28" y="112" font-family="sans-serif" font-size="7" fill="#777">high</text>
  <rect x="55" y="106" width="6" height="6" rx="1" fill="#7986cb"/>
  <text x="63" y="112" font-family="sans-serif" font-size="7" fill="#777">med</text>
  <rect x="90" y="106" width="6" height="6" rx="1" fill="#e8eaf6"/>
  <text x="98" y="112" font-family="sans-serif" font-size="7" fill="#777">low</text>
</svg>
