<svg xmlns="http://www.w3.org/2000/svg" viewBox="0 0 160 130" width="160" height="130">
  <text x="80" y="18" text-anchor="middle" font-family="sans-serif" font-size="11" font-weight="bold" fill="#333">Comp. / Contam.</text>
  <!-- axes -->
  <line x1="25" y1="95" x2="145" y2="95" stroke="#555" stroke-width="1.5"/>
  <line x1="25" y1="25" x2="25" y2="95" stroke="#555" stroke-width="1.5"/>
  <polygon points="25,25 20,35 30,35" fill="#555"/>
  <polygon points="145,95 135,90 135,100" fill="#555"/>
  <text x="15" y="62" text-anchor="middle" font-family="sans-serif" font-size="8" fill="#777" transform="rotate(-90,15,62)">Contamination</text>
  <text x="85" y="110" text-anchor="middle" font-family="sans-serif" font-size="8" fill="#777">Completeness</text>
  <!-- threshold lines -->
  <line x1="25" y1="50" x2="145" y2="50" stroke="#ccc" stroke-width="0.5" stroke-dasharray="3,2"/>
  <line x1="25" y1="70" x2="145" y2="70" stroke="#ccc" stroke-width="0.5" stroke-dasharray="3,2"/>
  <!-- HQ points -->
  <circle cx="110" cy="32" r="4" fill="#4CAF50" opacity="0.85"/>
  <circle cx="95" cy="75" r="3.5" fill="#4CAF50" opacity="0.85"/>
  <circle cx="125" cy="30" r="4" fill="#4CAF50" opacity="0.85"/>
  <circle cx="80" cy="40" r="3.5" fill="#4CAF50" opacity="0.85"/>
  <circle cx="105" cy="55" r="3" fill="#4CAF50" opacity="0.85"/>
  <circle cx="87" cy="60" r="3" fill="#4CAF50" opacity="0.85"/>
  <!-- MQ points -->
  <circle cx="60" cy="38" r="3.5" fill="#FFC107" opacity="0.85"/>
  <circle cx="50" cy="65" r="3" fill="#FFC107" opacity="0.85"/>
  <circle cx="70" cy="55" r="3" fill="#FFC107" opacity="0.85"/>
  <circle cx="40" cy="32" r="3" fill="#FFC107" opacity="0.85"/>
  <!-- LQ points -->
  <circle cx="45" cy="85" r="3" fill="#FF5722" opacity="0.85"/>
  <circle cx="55" cy="78" r="3" fill="#FF5722" opacity="0.85"/>
  <circle cx="35" cy="60" r="3" fill="#FF5722" opacity="0.85"/>
  <circle cx="65" cy="85" r="3" fill="#FF5722" opacity="0.85"/>
  <!-- legend -->
  <rect x="20" y="117" width="6" height="6" rx="1" fill="#4CAF50"/>
  <text x="28" y="123" font-family="sans-serif" font-size="7" fill="#777">HQ</text>
  <rect x="55" y="117" width="6" height="6" rx="1" fill="#FFC107"/>
  <text x="63" y="123" font-family="sans-serif" font-size="7" fill="#777">MQ</text>
  <rect x="90" y="117" width="6" height="6" rx="1" fill="#FF5722"/>
  <text x="98" y="123" font-family="sans-serif" font-size="7" fill="#777">LQ</text>
</svg>
