<?xml version="1.0" encoding="utf-8" standalone="no"?>
<!DOCTYPE svg PUBLIC "-//W3C//DTD SVG 1.1//EN"
  "http://www.w3.org/Graphics/SVG/1.1/DTD/svg11.dtd">
<svg xmlns:xlink="http://www.w3.org/1999/xlink" width="1144.723594pt" height="425.031563pt" viewBox="0 0 1144.723594 425.031563" xmlns="http://www.w3.org/2000/svg" version="1.1">
 <metadata>
  <rdf:RDF xmlns:dc="http://purl.org/dc/elements/1.1/" xmlns:cc="http://creativecommons.org/ns#" xmlns:rdf="http://www.w3.org/1999/02/22-rdf-syntax-ns#">
   <cc:Work>
    <dc:type rdf:resource="http://purl.org/dc/dcmitype/StillImage"/>
    <dc:date>2026-07-16T14:57:54.929249</dc:date>
    <dc:format>image/svg+xml</dc:format>
    <dc:creator>
     <cc:Agent>
      <dc:title>Matplotlib v3.9.1, https://matplotlib.org/</dc:title>
     </cc:Agent>
    </dc:creator>
   </cc:Work>
  </rdf:RDF>
 </metadata>
 <defs>
  <style type="text/css">*{stroke-linejoin: round; stroke-linecap: butt}</style>
 </defs>
 <g id="figure_1">
  <g id="patch_1">
   <path d="M 0 425.031563 
L 1144.723594 425.031563 
L 1144.723594 0 
L 0 0 
z
" style="fill: #ffffff"/>
  </g>
  <g id="axes_1">
   <g id="patch_2">
    <path d="M 69.833594 377.797188 
L 566.774503 377.797188 
L 566.774503 26.877187 
L 69.833594 26.877187 
z
" style="fill: #ffffff"/>
   </g>
   <g id="patch_3">
    <path d="M 69.833594 361.846278 
L 325.403204 361.846278 
L 325.403204 308.676581 
L 69.833594 308.676581 
z
" clip-path="url(#pddb0efcf6c)" style="fill: #004c4c"/>
   </g>
   <g id="patch_4">
    <path d="M 69.833594 273.230117 
L 140.825152 273.230117 
L 140.825152 220.06042 
L 69.833594 220.06042 
z
" clip-path="url(#pddb0efcf6c)" style="fill: #004c4c"/>
   </g>
   <g id="patch_5">
    <path d="M 69.833594 184.613955 
L 91.131061 184.613955 
L 91.131061 131.444258 
L 69.833594 131.444258 
z
" clip-path="url(#pddb0efcf6c)" style="fill: #004c4c"/>
   </g>
   <g id="patch_6">
    <path d="M 69.833594 95.997794 
L 73.383172 95.997794 
L 73.383172 42.828097 
L 69.833594 42.828097 
z
" clip-path="url(#pddb0efcf6c)" style="fill: #004c4c"/>
   </g>
   <g id="patch_7">
    <path d="M 325.403204 361.846278 
L 442.539276 361.846278 
L 442.539276 308.676581 
L 325.403204 308.676581 
z
" clip-path="url(#pddb0efcf6c)" style="fill: #006666"/>
   </g>
   <g id="patch_8">
    <path d="M 140.825152 273.230117 
L 165.672198 273.230117 
L 165.672198 220.06042 
L 140.825152 220.06042 
z
" clip-path="url(#pddb0efcf6c)" style="fill: #006666"/>
   </g>
   <g id="patch_9">
    <path d="M 91.131061 184.613955 
L 101.779795 184.613955 
L 101.779795 131.444258 
L 91.131061 131.444258 
z
" clip-path="url(#pddb0efcf6c)" style="fill: #006666"/>
   </g>
   <g id="patch_10">
    <path d="M 73.383172 95.997794 
L 73.383172 95.997794 
L 73.383172 42.828097 
L 73.383172 42.828097 
z
" clip-path="url(#pddb0efcf6c)" style="fill: #006666"/>
   </g>
   <g id="patch_11">
    <path d="M 442.539276 361.846278 
L 467.386321 361.846278 
L 467.386321 308.676581 
L 442.539276 308.676581 
z
" clip-path="url(#pddb0efcf6c)" style="fill: #008080"/>
   </g>
   <g id="patch_12">
    <path d="M 165.672198 273.230117 
L 179.870509 273.230117 
L 179.870509 220.06042 
L 165.672198 220.06042 
z
" clip-path="url(#pddb0efcf6c)" style="fill: #008080"/>
   </g>
   <g id="patch_13">
    <path d="M 101.779795 184.613955 
L 108.878951 184.613955 
L 108.878951 131.444258 
L 101.779795 131.444258 
z
" clip-path="url(#pddb0efcf6c)" style="fill: #008080"/>
   </g>
   <g id="patch_14">
    <path d="M 73.383172 95.997794 
L 73.383172 95.997794 
L 73.383172 42.828097 
L 73.383172 42.828097 
z
" clip-path="url(#pddb0efcf6c)" style="fill: #008080"/>
   </g>
   <g id="patch_15">
    <path d="M 467.386321 361.846278 
L 467.386321 361.846278 
L 467.386321 308.676581 
L 467.386321 308.676581 
z
" clip-path="url(#pddb0efcf6c)" style="fill: #33a3a3"/>
   </g>
   <g id="patch_16">
    <path d="M 179.870509 273.230117 
L 179.870509 273.230117 
L 179.870509 220.06042 
L 179.870509 220.06042 
z
" clip-path="url(#pddb0efcf6c)" style="fill: #33a3a3"/>
   </g>
   <g id="patch_17">
    <path d="M 108.878951 184.613955 
L 108.878951 184.613955 
L 108.878951 131.444258 
L 108.878951 131.444258 
z
" clip-path="url(#pddb0efcf6c)" style="fill: #33a3a3"/>
   </g>
   <g id="patch_18">
    <path d="M 73.383172 95.997794 
L 73.383172 95.997794 
L 73.383172 42.828097 
L 73.383172 42.828097 
z
" clip-path="url(#pddb0efcf6c)" style="fill: #33a3a3"/>
   </g>
   <g id="patch_19">
    <path d="M 467.386321 361.846278 
L 467.386321 361.846278 
L 467.386321 308.676581 
L 467.386321 308.676581 
z
" clip-path="url(#pddb0efcf6c)" style="fill: #99d6d6"/>
   </g>
   <g id="patch_20">
    <path d="M 179.870509 273.230117 
L 179.870509 273.230117 
L 179.870509 220.06042 
L 179.870509 220.06042 
z
" clip-path="url(#pddb0efcf6c)" style="fill: #99d6d6"/>
   </g>
   <g id="patch_21">
    <path d="M 108.878951 184.613955 
L 108.878951 184.613955 
L 108.878951 131.444258 
L 108.878951 131.444258 
z
" clip-path="url(#pddb0efcf6c)" style="fill: #99d6d6"/>
   </g>
   <g id="patch_22">
    <path d="M 73.383172 95.997794 
L 76.93275 95.997794 
L 76.93275 42.828097 
L 73.383172 42.828097 
z
" clip-path="url(#pddb0efcf6c)" style="fill: #99d6d6"/>
   </g>
   <g id="matplotlib.axis_1">
    <g id="xtick_1">
     <g id="line2d_1">
      <defs>
       <path id="ma6cb449e86" d="M 0 0 
L 0 3.5 
" style="stroke: #000000; stroke-width: 0.8"/>
      </defs>
      <g>
       <use xlink:href="#ma6cb449e86" x="69.833594" y="377.797188" style="stroke: #000000; stroke-width: 0.8"/>
      </g>
     </g>
     <g id="text_1">
      <!-- 0 -->
      <g transform="translate(65.061719 396.194844) scale(0.15 -0.15)">
       <defs>
        <path id="DejaVuSans-30" d="M 2034 4250 
Q 1547 4250 1301 3770 
Q 1056 3291 1056 2328 
Q 1056 1369 1301 889 
Q 1547 409 2034 409 
Q 2525 409 2770 889 
Q 3016 1369 3016 2328 
Q 3016 3291 2770 3770 
Q 2525 4250 2034 4250 
z
M 2034 4750 
Q 2819 4750 3233 4129 
Q 3647 3509 3647 2328 
Q 3647 1150 3233 529 
Q 2819 -91 2034 -91 
Q 1250 -91 836 529 
Q 422 1150 422 2328 
Q 422 3509 836 4129 
Q 1250 4750 2034 4750 
z
" transform="scale(0.015625)"/>
       </defs>
       <use xlink:href="#DejaVuSans-30"/>
      </g>
     </g>
    </g>
    <g id="xtick_2">
     <g id="line2d_2">
      <g>
       <use xlink:href="#ma6cb449e86" x="140.825152" y="377.797188" style="stroke: #000000; stroke-width: 0.8"/>
      </g>
     </g>
     <g id="text_2">
      <!-- 20 -->
      <g transform="translate(131.281402 396.194844) scale(0.15 -0.15)">
       <defs>
        <path id="DejaVuSans-32" d="M 1228 531 
L 3431 531 
L 3431 0 
L 469 0 
L 469 531 
Q 828 903 1448 1529 
Q 2069 2156 2228 2338 
Q 2531 2678 2651 2914 
Q 2772 3150 2772 3378 
Q 2772 3750 2511 3984 
Q 2250 4219 1831 4219 
Q 1534 4219 1204 4116 
Q 875 4013 500 3803 
L 500 4441 
Q 881 4594 1212 4672 
Q 1544 4750 1819 4750 
Q 2544 4750 2975 4387 
Q 3406 4025 3406 3419 
Q 3406 3131 3298 2873 
Q 3191 2616 2906 2266 
Q 2828 2175 2409 1742 
Q 1991 1309 1228 531 
z
" transform="scale(0.015625)"/>
       </defs>
       <use xlink:href="#DejaVuSans-32"/>
       <use xlink:href="#DejaVuSans-30" x="63.623047"/>
      </g>
     </g>
    </g>
    <g id="xtick_3">
     <g id="line2d_3">
      <g>
       <use xlink:href="#ma6cb449e86" x="211.816711" y="377.797188" style="stroke: #000000; stroke-width: 0.8"/>
      </g>
     </g>
     <g id="text_3">
      <!-- 40 -->
      <g transform="translate(202.272961 396.194844) scale(0.15 -0.15)">
       <defs>
        <path id="DejaVuSans-34" d="M 2419 4116 
L 825 1625 
L 2419 1625 
L 2419 4116 
z
M 2253 4666 
L 3047 4666 
L 3047 1625 
L 3713 1625 
L 3713 1100 
L 3047 1100 
L 3047 0 
L 2419 0 
L 2419 1100 
L 313 1100 
L 313 1709 
L 2253 4666 
z
" transform="scale(0.015625)"/>
       </defs>
       <use xlink:href="#DejaVuSans-34"/>
       <use xlink:href="#DejaVuSans-30" x="63.623047"/>
      </g>
     </g>
    </g>
    <g id="xtick_4">
     <g id="line2d_4">
      <g>
       <use xlink:href="#ma6cb449e86" x="282.808269" y="377.797188" style="stroke: #000000; stroke-width: 0.8"/>
      </g>
     </g>
     <g id="text_4">
      <!-- 60 -->
      <g transform="translate(273.264519 396.194844) scale(0.15 -0.15)">
       <defs>
        <path id="DejaVuSans-36" d="M 2113 2584 
Q 1688 2584 1439 2293 
Q 1191 2003 1191 1497 
Q 1191 994 1439 701 
Q 1688 409 2113 409 
Q 2538 409 2786 701 
Q 3034 994 3034 1497 
Q 3034 2003 2786 2293 
Q 2538 2584 2113 2584 
z
M 3366 4563 
L 3366 3988 
Q 3128 4100 2886 4159 
Q 2644 4219 2406 4219 
Q 1781 4219 1451 3797 
Q 1122 3375 1075 2522 
Q 1259 2794 1537 2939 
Q 1816 3084 2150 3084 
Q 2853 3084 3261 2657 
Q 3669 2231 3669 1497 
Q 3669 778 3244 343 
Q 2819 -91 2113 -91 
Q 1303 -91 875 529 
Q 447 1150 447 2328 
Q 447 3434 972 4092 
Q 1497 4750 2381 4750 
Q 2619 4750 2861 4703 
Q 3103 4656 3366 4563 
z
" transform="scale(0.015625)"/>
       </defs>
       <use xlink:href="#DejaVuSans-36"/>
       <use xlink:href="#DejaVuSans-30" x="63.623047"/>
      </g>
     </g>
    </g>
    <g id="xtick_5">
     <g id="line2d_5">
      <g>
       <use xlink:href="#ma6cb449e86" x="353.799828" y="377.797188" style="stroke: #000000; stroke-width: 0.8"/>
      </g>
     </g>
     <g id="text_5">
      <!-- 80 -->
      <g transform="translate(344.256078 396.194844) scale(0.15 -0.15)">
       <defs>
        <path id="DejaVuSans-38" d="M 2034 2216 
Q 1584 2216 1326 1975 
Q 1069 1734 1069 1313 
Q 1069 891 1326 650 
Q 1584 409 2034 409 
Q 2484 409 2743 651 
Q 3003 894 3003 1313 
Q 3003 1734 2745 1975 
Q 2488 2216 2034 2216 
z
M 1403 2484 
Q 997 2584 770 2862 
Q 544 3141 544 3541 
Q 544 4100 942 4425 
Q 1341 4750 2034 4750 
Q 2731 4750 3128 4425 
Q 3525 4100 3525 3541 
Q 3525 3141 3298 2862 
Q 3072 2584 2669 2484 
Q 3125 2378 3379 2068 
Q 3634 1759 3634 1313 
Q 3634 634 3220 271 
Q 2806 -91 2034 -91 
Q 1263 -91 848 271 
Q 434 634 434 1313 
Q 434 1759 690 2068 
Q 947 2378 1403 2484 
z
M 1172 3481 
Q 1172 3119 1398 2916 
Q 1625 2713 2034 2713 
Q 2441 2713 2670 2916 
Q 2900 3119 2900 3481 
Q 2900 3844 2670 4047 
Q 2441 4250 2034 4250 
Q 1625 4250 1398 4047 
Q 1172 3844 1172 3481 
z
" transform="scale(0.015625)"/>
       </defs>
       <use xlink:href="#DejaVuSans-38"/>
       <use xlink:href="#DejaVuSans-30" x="63.623047"/>
      </g>
     </g>
    </g>
    <g id="xtick_6">
     <g id="line2d_6">
      <g>
       <use xlink:href="#ma6cb449e86" x="424.791386" y="377.797188" style="stroke: #000000; stroke-width: 0.8"/>
      </g>
     </g>
     <g id="text_6">
      <!-- 100 -->
      <g transform="translate(410.475761 396.194844) scale(0.15 -0.15)">
       <defs>
        <path id="DejaVuSans-31" d="M 794 531 
L 1825 531 
L 1825 4091 
L 703 3866 
L 703 4441 
L 1819 4666 
L 2450 4666 
L 2450 531 
L 3481 531 
L 3481 0 
L 794 0 
L 794 531 
z
" transform="scale(0.015625)"/>
       </defs>
       <use xlink:href="#DejaVuSans-31"/>
       <use xlink:href="#DejaVuSans-30" x="63.623047"/>
       <use xlink:href="#DejaVuSans-30" x="127.246094"/>
      </g>
     </g>
    </g>
    <g id="xtick_7">
     <g id="line2d_7">
      <g>
       <use xlink:href="#ma6cb449e86" x="495.782944" y="377.797188" style="stroke: #000000; stroke-width: 0.8"/>
      </g>
     </g>
     <g id="text_7">
      <!-- 120 -->
      <g transform="translate(481.467319 396.194844) scale(0.15 -0.15)">
       <use xlink:href="#DejaVuSans-31"/>
       <use xlink:href="#DejaVuSans-32" x="63.623047"/>
       <use xlink:href="#DejaVuSans-30" x="127.246094"/>
      </g>
     </g>
    </g>
    <g id="xtick_8">
     <g id="line2d_8">
      <g>
       <use xlink:href="#ma6cb449e86" x="566.774503" y="377.797188" style="stroke: #000000; stroke-width: 0.8"/>
      </g>
     </g>
     <g id="text_8">
      <!-- 140 -->
      <g transform="translate(552.458878 396.194844) scale(0.15 -0.15)">
       <use xlink:href="#DejaVuSans-31"/>
       <use xlink:href="#DejaVuSans-34" x="63.623047"/>
       <use xlink:href="#DejaVuSans-30" x="127.246094"/>
      </g>
     </g>
    </g>
    <g id="text_9">
     <!-- #MAGs -->
     <g transform="translate(290.830611 414.712031) scale(0.15 -0.15)">
      <defs>
       <path id="DejaVuSans-23" d="M 3272 2816 
L 2363 2816 
L 2100 1772 
L 3016 1772 
L 3272 2816 
z
M 2803 4594 
L 2478 3297 
L 3391 3297 
L 3719 4594 
L 4219 4594 
L 3897 3297 
L 4872 3297 
L 4872 2816 
L 3775 2816 
L 3519 1772 
L 4513 1772 
L 4513 1294 
L 3397 1294 
L 3072 0 
L 2572 0 
L 2894 1294 
L 1978 1294 
L 1656 0 
L 1153 0 
L 1478 1294 
L 494 1294 
L 494 1772 
L 1594 1772 
L 1856 2816 
L 850 2816 
L 850 3297 
L 1978 3297 
L 2297 4594 
L 2803 4594 
z
" transform="scale(0.015625)"/>
       <path id="DejaVuSans-4d" d="M 628 4666 
L 1569 4666 
L 2759 1491 
L 3956 4666 
L 4897 4666 
L 4897 0 
L 4281 0 
L 4281 4097 
L 3078 897 
L 2444 897 
L 1241 4097 
L 1241 0 
L 628 0 
L 628 4666 
z
" transform="scale(0.015625)"/>
       <path id="DejaVuSans-41" d="M 2188 4044 
L 1331 1722 
L 3047 1722 
L 2188 4044 
z
M 1831 4666 
L 2547 4666 
L 4325 0 
L 3669 0 
L 3244 1197 
L 1141 1197 
L 716 0 
L 50 0 
L 1831 4666 
z
" transform="scale(0.015625)"/>
       <path id="DejaVuSans-47" d="M 3809 666 
L 3809 1919 
L 2778 1919 
L 2778 2438 
L 4434 2438 
L 4434 434 
Q 4069 175 3628 42 
Q 3188 -91 2688 -91 
Q 1594 -91 976 548 
Q 359 1188 359 2328 
Q 359 3472 976 4111 
Q 1594 4750 2688 4750 
Q 3144 4750 3555 4637 
Q 3966 4525 4313 4306 
L 4313 3634 
Q 3963 3931 3569 4081 
Q 3175 4231 2741 4231 
Q 1884 4231 1454 3753 
Q 1025 3275 1025 2328 
Q 1025 1384 1454 906 
Q 1884 428 2741 428 
Q 3075 428 3337 486 
Q 3600 544 3809 666 
z
" transform="scale(0.015625)"/>
       <path id="DejaVuSans-73" d="M 2834 3397 
L 2834 2853 
Q 2591 2978 2328 3040 
Q 2066 3103 1784 3103 
Q 1356 3103 1142 2972 
Q 928 2841 928 2578 
Q 928 2378 1081 2264 
Q 1234 2150 1697 2047 
L 1894 2003 
Q 2506 1872 2764 1633 
Q 3022 1394 3022 966 
Q 3022 478 2636 193 
Q 2250 -91 1575 -91 
Q 1294 -91 989 -36 
Q 684 19 347 128 
L 347 722 
Q 666 556 975 473 
Q 1284 391 1588 391 
Q 1994 391 2212 530 
Q 2431 669 2431 922 
Q 2431 1156 2273 1281 
Q 2116 1406 1581 1522 
L 1381 1569 
Q 847 1681 609 1914 
Q 372 2147 372 2553 
Q 372 3047 722 3315 
Q 1072 3584 1716 3584 
Q 2034 3584 2315 3537 
Q 2597 3491 2834 3397 
z
" transform="scale(0.015625)"/>
      </defs>
      <use xlink:href="#DejaVuSans-23"/>
      <use xlink:href="#DejaVuSans-4d" x="83.789062"/>
      <use xlink:href="#DejaVuSans-41" x="170.068359"/>
      <use xlink:href="#DejaVuSans-47" x="236.726562"/>
      <use xlink:href="#DejaVuSans-73" x="314.216797"/>
     </g>
    </g>
   </g>
   <g id="matplotlib.axis_2">
    <g id="ytick_1">
     <g id="line2d_9">
      <defs>
       <path id="mc47be368a9" d="M 0 0 
L -3.5 0 
" style="stroke: #000000; stroke-width: 0.8"/>
      </defs>
      <g>
       <use xlink:href="#mc47be368a9" x="69.833594" y="335.26143" style="stroke: #000000; stroke-width: 0.8"/>
      </g>
     </g>
     <g id="text_10">
      <!-- Marine -->
      <g transform="translate(11.629687 340.960258) scale(0.15 -0.15)">
       <defs>
        <path id="DejaVuSans-61" d="M 2194 1759 
Q 1497 1759 1228 1600 
Q 959 1441 959 1056 
Q 959 750 1161 570 
Q 1363 391 1709 391 
Q 2188 391 2477 730 
Q 2766 1069 2766 1631 
L 2766 1759 
L 2194 1759 
z
M 3341 1997 
L 3341 0 
L 2766 0 
L 2766 531 
Q 2569 213 2275 61 
Q 1981 -91 1556 -91 
Q 1019 -91 701 211 
Q 384 513 384 1019 
Q 384 1609 779 1909 
Q 1175 2209 1959 2209 
L 2766 2209 
L 2766 2266 
Q 2766 2663 2505 2880 
Q 2244 3097 1772 3097 
Q 1472 3097 1187 3025 
Q 903 2953 641 2809 
L 641 3341 
Q 956 3463 1253 3523 
Q 1550 3584 1831 3584 
Q 2591 3584 2966 3190 
Q 3341 2797 3341 1997 
z
" transform="scale(0.015625)"/>
        <path id="DejaVuSans-72" d="M 2631 2963 
Q 2534 3019 2420 3045 
Q 2306 3072 2169 3072 
Q 1681 3072 1420 2755 
Q 1159 2438 1159 1844 
L 1159 0 
L 581 0 
L 581 3500 
L 1159 3500 
L 1159 2956 
Q 1341 3275 1631 3429 
Q 1922 3584 2338 3584 
Q 2397 3584 2469 3576 
Q 2541 3569 2628 3553 
L 2631 2963 
z
" transform="scale(0.015625)"/>
        <path id="DejaVuSans-69" d="M 603 3500 
L 1178 3500 
L 1178 0 
L 603 0 
L 603 3500 
z
M 603 4863 
L 1178 4863 
L 1178 4134 
L 603 4134 
L 603 4863 
z
" transform="scale(0.015625)"/>
        <path id="DejaVuSans-6e" d="M 3513 2113 
L 3513 0 
L 2938 0 
L 2938 2094 
Q 2938 2591 2744 2837 
Q 2550 3084 2163 3084 
Q 1697 3084 1428 2787 
Q 1159 2491 1159 1978 
L 1159 0 
L 581 0 
L 581 3500 
L 1159 3500 
L 1159 2956 
Q 1366 3272 1645 3428 
Q 1925 3584 2291 3584 
Q 2894 3584 3203 3211 
Q 3513 2838 3513 2113 
z
" transform="scale(0.015625)"/>
        <path id="DejaVuSans-65" d="M 3597 1894 
L 3597 1613 
L 953 1613 
Q 991 1019 1311 708 
Q 1631 397 2203 397 
Q 2534 397 2845 478 
Q 3156 559 3463 722 
L 3463 178 
Q 3153 47 2828 -22 
Q 2503 -91 2169 -91 
Q 1331 -91 842 396 
Q 353 884 353 1716 
Q 353 2575 817 3079 
Q 1281 3584 2069 3584 
Q 2775 3584 3186 3129 
Q 3597 2675 3597 1894 
z
M 3022 2063 
Q 3016 2534 2758 2815 
Q 2500 3097 2075 3097 
Q 1594 3097 1305 2825 
Q 1016 2553 972 2059 
L 3022 2063 
z
" transform="scale(0.015625)"/>
       </defs>
       <use xlink:href="#DejaVuSans-4d"/>
       <use xlink:href="#DejaVuSans-61" x="86.279297"/>
       <use xlink:href="#DejaVuSans-72" x="147.558594"/>
       <use xlink:href="#DejaVuSans-69" x="188.671875"/>
       <use xlink:href="#DejaVuSans-6e" x="216.455078"/>
       <use xlink:href="#DejaVuSans-65" x="279.833984"/>
      </g>
     </g>
    </g>
    <g id="ytick_2">
     <g id="line2d_10">
      <g>
       <use xlink:href="#mc47be368a9" x="69.833594" y="246.645268" style="stroke: #000000; stroke-width: 0.8"/>
      </g>
     </g>
     <g id="text_11">
      <!-- Bee -->
      <g transform="translate(34.082812 252.344096) scale(0.15 -0.15)">
       <defs>
        <path id="DejaVuSans-42" d="M 1259 2228 
L 1259 519 
L 2272 519 
Q 2781 519 3026 730 
Q 3272 941 3272 1375 
Q 3272 1813 3026 2020 
Q 2781 2228 2272 2228 
L 1259 2228 
z
M 1259 4147 
L 1259 2741 
L 2194 2741 
Q 2656 2741 2882 2914 
Q 3109 3088 3109 3444 
Q 3109 3797 2882 3972 
Q 2656 4147 2194 4147 
L 1259 4147 
z
M 628 4666 
L 2241 4666 
Q 2963 4666 3353 4366 
Q 3744 4066 3744 3513 
Q 3744 3084 3544 2831 
Q 3344 2578 2956 2516 
Q 3422 2416 3680 2098 
Q 3938 1781 3938 1306 
Q 3938 681 3513 340 
Q 3088 0 2303 0 
L 628 0 
L 628 4666 
z
" transform="scale(0.015625)"/>
       </defs>
       <use xlink:href="#DejaVuSans-42"/>
       <use xlink:href="#DejaVuSans-65" x="68.603516"/>
       <use xlink:href="#DejaVuSans-65" x="130.126953"/>
      </g>
     </g>
    </g>
    <g id="ytick_3">
     <g id="line2d_11">
      <g>
       <use xlink:href="#mc47be368a9" x="69.833594" y="158.029107" style="stroke: #000000; stroke-width: 0.8"/>
      </g>
     </g>
     <g id="text_12">
      <!-- Termite -->
      <g transform="translate(7.2 163.727935) scale(0.15 -0.15)">
       <defs>
        <path id="DejaVuSans-54" d="M -19 4666 
L 3928 4666 
L 3928 4134 
L 2272 4134 
L 2272 0 
L 1638 0 
L 1638 4134 
L -19 4134 
L -19 4666 
z
" transform="scale(0.015625)"/>
        <path id="DejaVuSans-6d" d="M 3328 2828 
Q 3544 3216 3844 3400 
Q 4144 3584 4550 3584 
Q 5097 3584 5394 3201 
Q 5691 2819 5691 2113 
L 5691 0 
L 5113 0 
L 5113 2094 
Q 5113 2597 4934 2840 
Q 4756 3084 4391 3084 
Q 3944 3084 3684 2787 
Q 3425 2491 3425 1978 
L 3425 0 
L 2847 0 
L 2847 2094 
Q 2847 2600 2669 2842 
Q 2491 3084 2119 3084 
Q 1678 3084 1418 2786 
Q 1159 2488 1159 1978 
L 1159 0 
L 581 0 
L 581 3500 
L 1159 3500 
L 1159 2956 
Q 1356 3278 1631 3431 
Q 1906 3584 2284 3584 
Q 2666 3584 2933 3390 
Q 3200 3197 3328 2828 
z
" transform="scale(0.015625)"/>
        <path id="DejaVuSans-74" d="M 1172 4494 
L 1172 3500 
L 2356 3500 
L 2356 3053 
L 1172 3053 
L 1172 1153 
Q 1172 725 1289 603 
Q 1406 481 1766 481 
L 2356 481 
L 2356 0 
L 1766 0 
Q 1100 0 847 248 
Q 594 497 594 1153 
L 594 3053 
L 172 3053 
L 172 3500 
L 594 3500 
L 594 4494 
L 1172 4494 
z
" transform="scale(0.015625)"/>
       </defs>
       <use xlink:href="#DejaVuSans-54"/>
       <use xlink:href="#DejaVuSans-65" x="44.083984"/>
       <use xlink:href="#DejaVuSans-72" x="105.607422"/>
       <use xlink:href="#DejaVuSans-6d" x="144.970703"/>
       <use xlink:href="#DejaVuSans-69" x="242.382812"/>
       <use xlink:href="#DejaVuSans-74" x="270.166016"/>
       <use xlink:href="#DejaVuSans-65" x="309.375"/>
      </g>
     </g>
    </g>
    <g id="ytick_4">
     <g id="line2d_12">
      <g>
       <use xlink:href="#mc47be368a9" x="69.833594" y="69.412945" style="stroke: #000000; stroke-width: 0.8"/>
      </g>
     </g>
     <g id="text_13">
      <!-- Cloud -->
      <g transform="translate(19.985156 75.111773) scale(0.15 -0.15)">
       <defs>
        <path id="DejaVuSans-43" d="M 4122 4306 
L 4122 3641 
Q 3803 3938 3442 4084 
Q 3081 4231 2675 4231 
Q 1875 4231 1450 3742 
Q 1025 3253 1025 2328 
Q 1025 1406 1450 917 
Q 1875 428 2675 428 
Q 3081 428 3442 575 
Q 3803 722 4122 1019 
L 4122 359 
Q 3791 134 3420 21 
Q 3050 -91 2638 -91 
Q 1578 -91 968 557 
Q 359 1206 359 2328 
Q 359 3453 968 4101 
Q 1578 4750 2638 4750 
Q 3056 4750 3426 4639 
Q 3797 4528 4122 4306 
z
" transform="scale(0.015625)"/>
        <path id="DejaVuSans-6c" d="M 603 4863 
L 1178 4863 
L 1178 0 
L 603 0 
L 603 4863 
z
" transform="scale(0.015625)"/>
        <path id="DejaVuSans-6f" d="M 1959 3097 
Q 1497 3097 1228 2736 
Q 959 2375 959 1747 
Q 959 1119 1226 758 
Q 1494 397 1959 397 
Q 2419 397 2687 759 
Q 2956 1122 2956 1747 
Q 2956 2369 2687 2733 
Q 2419 3097 1959 3097 
z
M 1959 3584 
Q 2709 3584 3137 3096 
Q 3566 2609 3566 1747 
Q 3566 888 3137 398 
Q 2709 -91 1959 -91 
Q 1206 -91 779 398 
Q 353 888 353 1747 
Q 353 2609 779 3096 
Q 1206 3584 1959 3584 
z
" transform="scale(0.015625)"/>
        <path id="DejaVuSans-75" d="M 544 1381 
L 544 3500 
L 1119 3500 
L 1119 1403 
Q 1119 906 1312 657 
Q 1506 409 1894 409 
Q 2359 409 2629 706 
Q 2900 1003 2900 1516 
L 2900 3500 
L 3475 3500 
L 3475 0 
L 2900 0 
L 2900 538 
Q 2691 219 2414 64 
Q 2138 -91 1772 -91 
Q 1169 -91 856 284 
Q 544 659 544 1381 
z
M 1991 3584 
L 1991 3584 
z
" transform="scale(0.015625)"/>
        <path id="DejaVuSans-64" d="M 2906 2969 
L 2906 4863 
L 3481 4863 
L 3481 0 
L 2906 0 
L 2906 525 
Q 2725 213 2448 61 
Q 2172 -91 1784 -91 
Q 1150 -91 751 415 
Q 353 922 353 1747 
Q 353 2572 751 3078 
Q 1150 3584 1784 3584 
Q 2172 3584 2448 3432 
Q 2725 3281 2906 2969 
z
M 947 1747 
Q 947 1113 1208 752 
Q 1469 391 1925 391 
Q 2381 391 2643 752 
Q 2906 1113 2906 1747 
Q 2906 2381 2643 2742 
Q 2381 3103 1925 3103 
Q 1469 3103 1208 2742 
Q 947 2381 947 1747 
z
" transform="scale(0.015625)"/>
       </defs>
       <use xlink:href="#DejaVuSans-43"/>
       <use xlink:href="#DejaVuSans-6c" x="69.824219"/>
       <use xlink:href="#DejaVuSans-6f" x="97.607422"/>
       <use xlink:href="#DejaVuSans-75" x="158.789062"/>
       <use xlink:href="#DejaVuSans-64" x="222.167969"/>
      </g>
     </g>
    </g>
   </g>
   <g id="patch_23">
    <path d="M 69.833594 377.797187 
L 69.833594 26.877187 
" style="fill: none; stroke: #000000; stroke-width: 0.8; stroke-linejoin: miter; stroke-linecap: square"/>
   </g>
   <g id="patch_24">
    <path d="M 566.774503 377.797187 
L 566.774503 26.877187 
" style="fill: none; stroke: #000000; stroke-width: 0.8; stroke-linejoin: miter; stroke-linecap: square"/>
   </g>
   <g id="patch_25">
    <path d="M 69.833594 377.797188 
L 566.774503 377.797188 
" style="fill: none; stroke: #000000; stroke-width: 0.8; stroke-linejoin: miter; stroke-linecap: square"/>
   </g>
   <g id="patch_26">
    <path d="M 69.833594 26.877187 
L 566.774503 26.877187 
" style="fill: none; stroke: #000000; stroke-width: 0.8; stroke-linejoin: miter; stroke-linecap: square"/>
   </g>
   <g id="text_14">
    <!-- 112 -->
    <g transform="translate(475.337376 339.400492) scale(0.15 -0.15)">
     <use xlink:href="#DejaVuSans-31"/>
     <use xlink:href="#DejaVuSans-31" x="63.623047"/>
     <use xlink:href="#DejaVuSans-32" x="127.246094"/>
    </g>
   </g>
   <g id="text_15">
    <!-- 31 -->
    <g transform="translate(187.821564 250.784331) scale(0.15 -0.15)">
     <defs>
      <path id="DejaVuSans-33" d="M 2597 2516 
Q 3050 2419 3304 2112 
Q 3559 1806 3559 1356 
Q 3559 666 3084 287 
Q 2609 -91 1734 -91 
Q 1441 -91 1130 -33 
Q 819 25 488 141 
L 488 750 
Q 750 597 1062 519 
Q 1375 441 1716 441 
Q 2309 441 2620 675 
Q 2931 909 2931 1356 
Q 2931 1769 2642 2001 
Q 2353 2234 1838 2234 
L 1294 2234 
L 1294 2753 
L 1863 2753 
Q 2328 2753 2575 2939 
Q 2822 3125 2822 3475 
Q 2822 3834 2567 4026 
Q 2313 4219 1838 4219 
Q 1578 4219 1281 4162 
Q 984 4106 628 3988 
L 628 4550 
Q 988 4650 1302 4700 
Q 1616 4750 1894 4750 
Q 2613 4750 3031 4423 
Q 3450 4097 3450 3541 
Q 3450 3153 3228 2886 
Q 3006 2619 2597 2516 
z
" transform="scale(0.015625)"/>
     </defs>
     <use xlink:href="#DejaVuSans-33"/>
     <use xlink:href="#DejaVuSans-31" x="63.623047"/>
    </g>
   </g>
   <g id="text_16">
    <!-- 11 -->
    <g transform="translate(116.830005 162.168169) scale(0.15 -0.15)">
     <use xlink:href="#DejaVuSans-31"/>
     <use xlink:href="#DejaVuSans-31" x="63.623047"/>
    </g>
   </g>
   <g id="text_17">
    <!-- 2 -->
    <g transform="translate(84.883804 73.552008) scale(0.15 -0.15)">
     <use xlink:href="#DejaVuSans-32"/>
    </g>
   </g>
   <g id="text_18">
    <!-- (A) -->
    <g transform="translate(10.200685 24.528062) scale(0.2 -0.2)">
     <defs>
      <path id="DejaVuSans-Bold-28" d="M 2413 -844 
L 1484 -844 
Q 1006 -72 778 623 
Q 550 1319 550 2003 
Q 550 2688 779 3389 
Q 1009 4091 1484 4856 
L 2413 4856 
Q 2013 4116 1813 3408 
Q 1613 2700 1613 2009 
Q 1613 1319 1811 609 
Q 2009 -100 2413 -844 
z
" transform="scale(0.015625)"/>
      <path id="DejaVuSans-Bold-41" d="M 3419 850 
L 1538 850 
L 1241 0 
L 31 0 
L 1759 4666 
L 3194 4666 
L 4922 0 
L 3713 0 
L 3419 850 
z
M 1838 1716 
L 3116 1716 
L 2478 3572 
L 1838 1716 
z
" transform="scale(0.015625)"/>
      <path id="DejaVuSans-Bold-29" d="M 513 -844 
Q 913 -100 1113 609 
Q 1313 1319 1313 2009 
Q 1313 2700 1113 3408 
Q 913 4116 513 4856 
L 1441 4856 
Q 1916 4091 2145 3389 
Q 2375 2688 2375 2003 
Q 2375 1319 2147 623 
Q 1919 -72 1441 -844 
L 513 -844 
z
" transform="scale(0.015625)"/>
     </defs>
     <use xlink:href="#DejaVuSans-Bold-28"/>
     <use xlink:href="#DejaVuSans-Bold-41" x="45.703125"/>
     <use xlink:href="#DejaVuSans-Bold-29" x="123.095703"/>
    </g>
   </g>
   <g id="text_19">
    <!-- Contamination &lt; 5% -->
    <g transform="translate(224.500142 20.877187) scale(0.18 -0.18)">
     <defs>
      <path id="DejaVuSans-20" transform="scale(0.015625)"/>
      <path id="DejaVuSans-3c" d="M 4684 3150 
L 1459 2003 
L 4684 863 
L 4684 294 
L 678 1747 
L 678 2266 
L 4684 3719 
L 4684 3150 
z
" transform="scale(0.015625)"/>
      <path id="DejaVuSans-35" d="M 691 4666 
L 3169 4666 
L 3169 4134 
L 1269 4134 
L 1269 2991 
Q 1406 3038 1543 3061 
Q 1681 3084 1819 3084 
Q 2600 3084 3056 2656 
Q 3513 2228 3513 1497 
Q 3513 744 3044 326 
Q 2575 -91 1722 -91 
Q 1428 -91 1123 -41 
Q 819 9 494 109 
L 494 744 
Q 775 591 1075 516 
Q 1375 441 1709 441 
Q 2250 441 2565 725 
Q 2881 1009 2881 1497 
Q 2881 1984 2565 2268 
Q 2250 2553 1709 2553 
Q 1456 2553 1204 2497 
Q 953 2441 691 2322 
L 691 4666 
z
" transform="scale(0.015625)"/>
      <path id="DejaVuSans-25" d="M 4653 2053 
Q 4381 2053 4226 1822 
Q 4072 1591 4072 1178 
Q 4072 772 4226 539 
Q 4381 306 4653 306 
Q 4919 306 5073 539 
Q 5228 772 5228 1178 
Q 5228 1588 5073 1820 
Q 4919 2053 4653 2053 
z
M 4653 2450 
Q 5147 2450 5437 2106 
Q 5728 1763 5728 1178 
Q 5728 594 5436 251 
Q 5144 -91 4653 -91 
Q 4153 -91 3862 251 
Q 3572 594 3572 1178 
Q 3572 1766 3864 2108 
Q 4156 2450 4653 2450 
z
M 1428 4353 
Q 1159 4353 1004 4120 
Q 850 3888 850 3481 
Q 850 3069 1003 2837 
Q 1156 2606 1428 2606 
Q 1700 2606 1854 2837 
Q 2009 3069 2009 3481 
Q 2009 3884 1853 4118 
Q 1697 4353 1428 4353 
z
M 4250 4750 
L 4750 4750 
L 1831 -91 
L 1331 -91 
L 4250 4750 
z
M 1428 4750 
Q 1922 4750 2215 4408 
Q 2509 4066 2509 3481 
Q 2509 2891 2217 2550 
Q 1925 2209 1428 2209 
Q 931 2209 642 2551 
Q 353 2894 353 3481 
Q 353 4063 643 4406 
Q 934 4750 1428 4750 
z
" transform="scale(0.015625)"/>
     </defs>
     <use xlink:href="#DejaVuSans-43"/>
     <use xlink:href="#DejaVuSans-6f" x="69.824219"/>
     <use xlink:href="#DejaVuSans-6e" x="131.005859"/>
     <use xlink:href="#DejaVuSans-74" x="194.384766"/>
     <use xlink:href="#DejaVuSans-61" x="233.59375"/>
     <use xlink:href="#DejaVuSans-6d" x="294.873047"/>
     <use xlink:href="#DejaVuSans-69" x="392.285156"/>
     <use xlink:href="#DejaVuSans-6e" x="420.068359"/>
     <use xlink:href="#DejaVuSans-61" x="483.447266"/>
     <use xlink:href="#DejaVuSans-74" x="544.726562"/>
     <use xlink:href="#DejaVuSans-69" x="583.935547"/>
     <use xlink:href="#DejaVuSans-6f" x="611.71875"/>
     <use xlink:href="#DejaVuSans-6e" x="672.900391"/>
     <use xlink:href="#DejaVuSans-20" x="736.279297"/>
     <use xlink:href="#DejaVuSans-3c" x="768.066406"/>
     <use xlink:href="#DejaVuSans-20" x="851.855469"/>
     <use xlink:href="#DejaVuSans-35" x="883.642578"/>
     <use xlink:href="#DejaVuSans-25" x="947.265625"/>
    </g>
   </g>
  </g>
  <g id="axes_2">
   <g id="patch_27">
    <path d="M 640.582685 377.797188 
L 1137.523594 377.797188 
L 1137.523594 26.877187 
L 640.582685 26.877187 
z
" style="fill: #ffffff"/>
   </g>
   <g id="patch_28">
    <path d="M 640.582685 361.846278 
L 881.037963 361.846278 
L 881.037963 308.676581 
L 640.582685 308.676581 
z
" clip-path="url(#pa1e8fd08bf)" style="fill: #004c4c"/>
   </g>
   <g id="patch_29">
    <path d="M 640.582685 273.230117 
L 704.704092 273.230117 
L 704.704092 220.06042 
L 640.582685 220.06042 
z
" clip-path="url(#pa1e8fd08bf)" style="fill: #004c4c"/>
   </g>
   <g id="patch_30">
    <path d="M 640.582685 184.613955 
L 663.025177 184.613955 
L 663.025177 131.444258 
L 640.582685 131.444258 
z
" clip-path="url(#pa1e8fd08bf)" style="fill: #004c4c"/>
   </g>
   <g id="patch_31">
    <path d="M 640.582685 95.997794 
L 643.788755 95.997794 
L 643.788755 42.828097 
L 640.582685 42.828097 
z
" clip-path="url(#pa1e8fd08bf)" style="fill: #004c4c"/>
   </g>
   <g id="patch_32">
    <path d="M 881.037963 361.846278 
L 1006.074708 361.846278 
L 1006.074708 308.676581 
L 881.037963 308.676581 
z
" clip-path="url(#pa1e8fd08bf)" style="fill: #006666"/>
   </g>
   <g id="patch_33">
    <path d="M 704.704092 273.230117 
L 730.352655 273.230117 
L 730.352655 220.06042 
L 704.704092 220.06042 
z
" clip-path="url(#pa1e8fd08bf)" style="fill: #006666"/>
   </g>
   <g id="patch_34">
    <path d="M 663.025177 184.613955 
L 675.849459 184.613955 
L 675.849459 131.444258 
L 663.025177 131.444258 
z
" clip-path="url(#pa1e8fd08bf)" style="fill: #006666"/>
   </g>
   <g id="patch_35">
    <path d="M 643.788755 95.997794 
L 643.788755 95.997794 
L 643.788755 42.828097 
L 643.788755 42.828097 
z
" clip-path="url(#pa1e8fd08bf)" style="fill: #006666"/>
   </g>
   <g id="patch_36">
    <path d="M 1006.074708 361.846278 
L 1038.135412 361.846278 
L 1038.135412 308.676581 
L 1006.074708 308.676581 
z
" clip-path="url(#pa1e8fd08bf)" style="fill: #008080"/>
   </g>
   <g id="patch_37">
    <path d="M 730.352655 273.230117 
L 759.207289 273.230117 
L 759.207289 220.06042 
L 730.352655 220.06042 
z
" clip-path="url(#pa1e8fd08bf)" style="fill: #008080"/>
   </g>
   <g id="patch_38">
    <path d="M 675.849459 184.613955 
L 685.46767 184.613955 
L 685.46767 131.444258 
L 675.849459 131.444258 
z
" clip-path="url(#pa1e8fd08bf)" style="fill: #008080"/>
   </g>
   <g id="patch_39">
    <path d="M 643.788755 95.997794 
L 643.788755 95.997794 
L 643.788755 42.828097 
L 643.788755 42.828097 
z
" clip-path="url(#pa1e8fd08bf)" style="fill: #008080"/>
   </g>
   <g id="patch_40">
    <path d="M 1038.135412 361.846278 
L 1038.135412 361.846278 
L 1038.135412 308.676581 
L 1038.135412 308.676581 
z
" clip-path="url(#pa1e8fd08bf)" style="fill: #33a3a3"/>
   </g>
   <g id="patch_41">
    <path d="M 759.207289 273.230117 
L 759.207289 273.230117 
L 759.207289 220.06042 
L 759.207289 220.06042 
z
" clip-path="url(#pa1e8fd08bf)" style="fill: #33a3a3"/>
   </g>
   <g id="patch_42">
    <path d="M 685.46767 184.613955 
L 685.46767 184.613955 
L 685.46767 131.444258 
L 685.46767 131.444258 
z
" clip-path="url(#pa1e8fd08bf)" style="fill: #33a3a3"/>
   </g>
   <g id="patch_43">
    <path d="M 643.788755 95.997794 
L 643.788755 95.997794 
L 643.788755 42.828097 
L 643.788755 42.828097 
z
" clip-path="url(#pa1e8fd08bf)" style="fill: #33a3a3"/>
   </g>
   <g id="patch_44">
    <path d="M 1038.135412 361.846278 
L 1038.135412 361.846278 
L 1038.135412 308.676581 
L 1038.135412 308.676581 
z
" clip-path="url(#pa1e8fd08bf)" style="fill: #99d6d6"/>
   </g>
   <g id="patch_45">
    <path d="M 759.207289 273.230117 
L 759.207289 273.230117 
L 759.207289 220.06042 
L 759.207289 220.06042 
z
" clip-path="url(#pa1e8fd08bf)" style="fill: #99d6d6"/>
   </g>
   <g id="patch_46">
    <path d="M 685.46767 184.613955 
L 685.46767 184.613955 
L 685.46767 131.444258 
L 685.46767 131.444258 
z
" clip-path="url(#pa1e8fd08bf)" style="fill: #99d6d6"/>
   </g>
   <g id="patch_47">
    <path d="M 643.788755 95.997794 
L 666.231248 95.997794 
L 666.231248 42.828097 
L 643.788755 42.828097 
z
" clip-path="url(#pa1e8fd08bf)" style="fill: #99d6d6"/>
   </g>
   <g id="matplotlib.axis_3">
    <g id="xtick_9">
     <g id="line2d_13">
      <g>
       <use xlink:href="#ma6cb449e86" x="640.582685" y="377.797188" style="stroke: #000000; stroke-width: 0.8"/>
      </g>
     </g>
     <g id="text_20">
      <!-- 0 -->
      <g transform="translate(635.81081 396.194844) scale(0.15 -0.15)">
       <use xlink:href="#DejaVuSans-30"/>
      </g>
     </g>
    </g>
    <g id="xtick_10">
     <g id="line2d_14">
      <g>
       <use xlink:href="#ma6cb449e86" x="704.704092" y="377.797188" style="stroke: #000000; stroke-width: 0.8"/>
      </g>
     </g>
     <g id="text_21">
      <!-- 20 -->
      <g transform="translate(695.160342 396.194844) scale(0.15 -0.15)">
       <use xlink:href="#DejaVuSans-32"/>
       <use xlink:href="#DejaVuSans-30" x="63.623047"/>
      </g>
     </g>
    </g>
    <g id="xtick_11">
     <g id="line2d_15">
      <g>
       <use xlink:href="#ma6cb449e86" x="768.8255" y="377.797188" style="stroke: #000000; stroke-width: 0.8"/>
      </g>
     </g>
     <g id="text_22">
      <!-- 40 -->
      <g transform="translate(759.28175 396.194844) scale(0.15 -0.15)">
       <use xlink:href="#DejaVuSans-34"/>
       <use xlink:href="#DejaVuSans-30" x="63.623047"/>
      </g>
     </g>
    </g>
    <g id="xtick_12">
     <g id="line2d_16">
      <g>
       <use xlink:href="#ma6cb449e86" x="832.946908" y="377.797188" style="stroke: #000000; stroke-width: 0.8"/>
      </g>
     </g>
     <g id="text_23">
      <!-- 60 -->
      <g transform="translate(823.403158 396.194844) scale(0.15 -0.15)">
       <use xlink:href="#DejaVuSans-36"/>
       <use xlink:href="#DejaVuSans-30" x="63.623047"/>
      </g>
     </g>
    </g>
    <g id="xtick_13">
     <g id="line2d_17">
      <g>
       <use xlink:href="#ma6cb449e86" x="897.068315" y="377.797188" style="stroke: #000000; stroke-width: 0.8"/>
      </g>
     </g>
     <g id="text_24">
      <!-- 80 -->
      <g transform="translate(887.524565 396.194844) scale(0.15 -0.15)">
       <use xlink:href="#DejaVuSans-38"/>
       <use xlink:href="#DejaVuSans-30" x="63.623047"/>
      </g>
     </g>
    </g>
    <g id="xtick_14">
     <g id="line2d_18">
      <g>
       <use xlink:href="#ma6cb449e86" x="961.189723" y="377.797188" style="stroke: #000000; stroke-width: 0.8"/>
      </g>
     </g>
     <g id="text_25">
      <!-- 100 -->
      <g transform="translate(946.874098 396.194844) scale(0.15 -0.15)">
       <use xlink:href="#DejaVuSans-31"/>
       <use xlink:href="#DejaVuSans-30" x="63.623047"/>
       <use xlink:href="#DejaVuSans-30" x="127.246094"/>
      </g>
     </g>
    </g>
    <g id="xtick_15">
     <g id="line2d_19">
      <g>
       <use xlink:href="#ma6cb449e86" x="1025.31113" y="377.797188" style="stroke: #000000; stroke-width: 0.8"/>
      </g>
     </g>
     <g id="text_26">
      <!-- 120 -->
      <g transform="translate(1010.995505 396.194844) scale(0.15 -0.15)">
       <use xlink:href="#DejaVuSans-31"/>
       <use xlink:href="#DejaVuSans-32" x="63.623047"/>
       <use xlink:href="#DejaVuSans-30" x="127.246094"/>
      </g>
     </g>
    </g>
    <g id="xtick_16">
     <g id="line2d_20">
      <g>
       <use xlink:href="#ma6cb449e86" x="1089.432538" y="377.797188" style="stroke: #000000; stroke-width: 0.8"/>
      </g>
     </g>
     <g id="text_27">
      <!-- 140 -->
      <g transform="translate(1075.116913 396.194844) scale(0.15 -0.15)">
       <use xlink:href="#DejaVuSans-31"/>
       <use xlink:href="#DejaVuSans-34" x="63.623047"/>
       <use xlink:href="#DejaVuSans-30" x="127.246094"/>
      </g>
     </g>
    </g>
    <g id="text_28">
     <!-- #MAGs -->
     <g transform="translate(861.579702 414.712031) scale(0.15 -0.15)">
      <use xlink:href="#DejaVuSans-23"/>
      <use xlink:href="#DejaVuSans-4d" x="83.789062"/>
      <use xlink:href="#DejaVuSans-41" x="170.068359"/>
      <use xlink:href="#DejaVuSans-47" x="236.726562"/>
      <use xlink:href="#DejaVuSans-73" x="314.216797"/>
     </g>
    </g>
   </g>
   <g id="matplotlib.axis_4">
    <g id="ytick_5">
     <g id="line2d_21">
      <g>
       <use xlink:href="#mc47be368a9" x="640.582685" y="335.26143" style="stroke: #000000; stroke-width: 0.8"/>
      </g>
     </g>
    </g>
    <g id="ytick_6">
     <g id="line2d_22">
      <g>
       <use xlink:href="#mc47be368a9" x="640.582685" y="246.645268" style="stroke: #000000; stroke-width: 0.8"/>
      </g>
     </g>
    </g>
    <g id="ytick_7">
     <g id="line2d_23">
      <g>
       <use xlink:href="#mc47be368a9" x="640.582685" y="158.029107" style="stroke: #000000; stroke-width: 0.8"/>
      </g>
     </g>
    </g>
    <g id="ytick_8">
     <g id="line2d_24">
      <g>
       <use xlink:href="#mc47be368a9" x="640.582685" y="69.412945" style="stroke: #000000; stroke-width: 0.8"/>
      </g>
     </g>
    </g>
   </g>
   <g id="patch_48">
    <path d="M 640.582685 377.797187 
L 640.582685 26.877187 
" style="fill: none; stroke: #000000; stroke-width: 0.8; stroke-linejoin: miter; stroke-linecap: square"/>
   </g>
   <g id="patch_49">
    <path d="M 1137.523594 377.797187 
L 1137.523594 26.877187 
" style="fill: none; stroke: #000000; stroke-width: 0.8; stroke-linejoin: miter; stroke-linecap: square"/>
   </g>
   <g id="patch_50">
    <path d="M 640.582685 377.797188 
L 1137.523594 377.797188 
" style="fill: none; stroke: #000000; stroke-width: 0.8; stroke-linejoin: miter; stroke-linecap: square"/>
   </g>
   <g id="patch_51">
    <path d="M 640.582685 26.877187 
L 1137.523594 26.877187 
" style="fill: none; stroke: #000000; stroke-width: 0.8; stroke-linejoin: miter; stroke-linecap: square"/>
   </g>
   <g id="text_29">
    <!-- 124 -->
    <g transform="translate(1046.086466 339.400492) scale(0.15 -0.15)">
     <use xlink:href="#DejaVuSans-31"/>
     <use xlink:href="#DejaVuSans-32" x="63.623047"/>
     <use xlink:href="#DejaVuSans-34" x="127.246094"/>
    </g>
   </g>
   <g id="text_30">
    <!-- 37 -->
    <g transform="translate(767.158343 250.784331) scale(0.15 -0.15)">
     <defs>
      <path id="DejaVuSans-37" d="M 525 4666 
L 3525 4666 
L 3525 4397 
L 1831 0 
L 1172 0 
L 2766 4134 
L 525 4134 
L 525 4666 
z
" transform="scale(0.015625)"/>
     </defs>
     <use xlink:href="#DejaVuSans-33"/>
     <use xlink:href="#DejaVuSans-37" x="63.623047"/>
    </g>
   </g>
   <g id="text_31">
    <!-- 14 -->
    <g transform="translate(693.418725 162.168169) scale(0.15 -0.15)">
     <use xlink:href="#DejaVuSans-31"/>
     <use xlink:href="#DejaVuSans-34" x="63.623047"/>
    </g>
   </g>
   <g id="text_32">
    <!-- 8 -->
    <g transform="translate(674.182302 73.552008) scale(0.15 -0.15)">
     <use xlink:href="#DejaVuSans-38"/>
    </g>
   </g>
   <g id="text_33">
    <!-- (B) -->
    <g transform="translate(580.949776 24.528062) scale(0.2 -0.2)">
     <defs>
      <path id="DejaVuSans-Bold-42" d="M 2456 2859 
Q 2741 2859 2887 2984 
Q 3034 3109 3034 3353 
Q 3034 3594 2887 3720 
Q 2741 3847 2456 3847 
L 1791 3847 
L 1791 2859 
L 2456 2859 
z
M 2497 819 
Q 2859 819 3042 972 
Q 3225 1125 3225 1434 
Q 3225 1738 3044 1889 
Q 2863 2041 2497 2041 
L 1791 2041 
L 1791 819 
L 2497 819 
z
M 3616 2497 
Q 4003 2384 4215 2081 
Q 4428 1778 4428 1338 
Q 4428 663 3972 331 
Q 3516 0 2584 0 
L 588 0 
L 588 4666 
L 2394 4666 
Q 3366 4666 3802 4372 
Q 4238 4078 4238 3431 
Q 4238 3091 4078 2852 
Q 3919 2613 3616 2497 
z
" transform="scale(0.015625)"/>
     </defs>
     <use xlink:href="#DejaVuSans-Bold-28"/>
     <use xlink:href="#DejaVuSans-Bold-42" x="45.703125"/>
     <use xlink:href="#DejaVuSans-Bold-29" x="121.923828"/>
    </g>
   </g>
   <g id="text_34">
    <!-- Contamination &lt; 10% -->
    <g transform="translate(789.522983 20.877187) scale(0.18 -0.18)">
     <use xlink:href="#DejaVuSans-43"/>
     <use xlink:href="#DejaVuSans-6f" x="69.824219"/>
     <use xlink:href="#DejaVuSans-6e" x="131.005859"/>
     <use xlink:href="#DejaVuSans-74" x="194.384766"/>
     <use xlink:href="#DejaVuSans-61" x="233.59375"/>
     <use xlink:href="#DejaVuSans-6d" x="294.873047"/>
     <use xlink:href="#DejaVuSans-69" x="392.285156"/>
     <use xlink:href="#DejaVuSans-6e" x="420.068359"/>
     <use xlink:href="#DejaVuSans-61" x="483.447266"/>
     <use xlink:href="#DejaVuSans-74" x="544.726562"/>
     <use xlink:href="#DejaVuSans-69" x="583.935547"/>
     <use xlink:href="#DejaVuSans-6f" x="611.71875"/>
     <use xlink:href="#DejaVuSans-6e" x="672.900391"/>
     <use xlink:href="#DejaVuSans-20" x="736.279297"/>
     <use xlink:href="#DejaVuSans-3c" x="768.066406"/>
     <use xlink:href="#DejaVuSans-20" x="851.855469"/>
     <use xlink:href="#DejaVuSans-31" x="883.642578"/>
     <use xlink:href="#DejaVuSans-30" x="947.265625"/>
     <use xlink:href="#DejaVuSans-25" x="1010.888672"/>
    </g>
   </g>
   <g id="legend_1">
    <g id="patch_52">
     <path d="M 1007.256094 171.948125 
L 1127.023594 171.948125 
Q 1130.023594 171.948125 1130.023594 168.948125 
L 1130.023594 37.377187 
Q 1130.023594 34.377187 1127.023594 34.377187 
L 1007.256094 34.377187 
Q 1004.256094 34.377187 1004.256094 37.377187 
L 1004.256094 168.948125 
Q 1004.256094 171.948125 1007.256094 171.948125 
z
" style="fill: #ffffff; opacity: 0.8; stroke: #cccccc; stroke-linejoin: miter"/>
    </g>
    <g id="text_35">
     <!-- Completeness -->
     <g transform="translate(1010.256094 52.534687) scale(0.16 -0.16)">
      <defs>
       <path id="DejaVuSans-70" d="M 1159 525 
L 1159 -1331 
L 581 -1331 
L 581 3500 
L 1159 3500 
L 1159 2969 
Q 1341 3281 1617 3432 
Q 1894 3584 2278 3584 
Q 2916 3584 3314 3078 
Q 3713 2572 3713 1747 
Q 3713 922 3314 415 
Q 2916 -91 2278 -91 
Q 1894 -91 1617 61 
Q 1341 213 1159 525 
z
M 3116 1747 
Q 3116 2381 2855 2742 
Q 2594 3103 2138 3103 
Q 1681 3103 1420 2742 
Q 1159 2381 1159 1747 
Q 1159 1113 1420 752 
Q 1681 391 2138 391 
Q 2594 391 2855 752 
Q 3116 1113 3116 1747 
z
" transform="scale(0.015625)"/>
      </defs>
      <use xlink:href="#DejaVuSans-43"/>
      <use xlink:href="#DejaVuSans-6f" x="69.824219"/>
      <use xlink:href="#DejaVuSans-6d" x="131.005859"/>
      <use xlink:href="#DejaVuSans-70" x="228.417969"/>
      <use xlink:href="#DejaVuSans-6c" x="291.894531"/>
      <use xlink:href="#DejaVuSans-65" x="319.677734"/>
      <use xlink:href="#DejaVuSans-74" x="381.201172"/>
      <use xlink:href="#DejaVuSans-65" x="420.410156"/>
      <use xlink:href="#DejaVuSans-6e" x="481.933594"/>
      <use xlink:href="#DejaVuSans-65" x="545.3125"/>
      <use xlink:href="#DejaVuSans-73" x="606.835938"/>
      <use xlink:href="#DejaVuSans-73" x="658.935547"/>
     </g>
    </g>
    <g id="patch_53">
     <path d="M 1030.311328 74.759844 
L 1060.311328 74.759844 
L 1060.311328 64.259844 
L 1030.311328 64.259844 
z
" style="fill: #004c4c"/>
    </g>
    <g id="text_36">
     <!-- &gt;90 -->
     <g transform="translate(1072.311328 74.759844) scale(0.15 -0.15)">
      <defs>
       <path id="DejaVuSans-3e" d="M 678 3150 
L 678 3719 
L 4684 2266 
L 4684 1747 
L 678 294 
L 678 863 
L 3897 2003 
L 678 3150 
z
" transform="scale(0.015625)"/>
       <path id="DejaVuSans-39" d="M 703 97 
L 703 672 
Q 941 559 1184 500 
Q 1428 441 1663 441 
Q 2288 441 2617 861 
Q 2947 1281 2994 2138 
Q 2813 1869 2534 1725 
Q 2256 1581 1919 1581 
Q 1219 1581 811 2004 
Q 403 2428 403 3163 
Q 403 3881 828 4315 
Q 1253 4750 1959 4750 
Q 2769 4750 3195 4129 
Q 3622 3509 3622 2328 
Q 3622 1225 3098 567 
Q 2575 -91 1691 -91 
Q 1453 -91 1209 -44 
Q 966 3 703 97 
z
M 1959 2075 
Q 2384 2075 2632 2365 
Q 2881 2656 2881 3163 
Q 2881 3666 2632 3958 
Q 2384 4250 1959 4250 
Q 1534 4250 1286 3958 
Q 1038 3666 1038 3163 
Q 1038 2656 1286 2365 
Q 1534 2075 1959 2075 
z
" transform="scale(0.015625)"/>
      </defs>
      <use xlink:href="#DejaVuSans-3e"/>
      <use xlink:href="#DejaVuSans-39" x="83.789062"/>
      <use xlink:href="#DejaVuSans-30" x="147.412109"/>
     </g>
    </g>
    <g id="patch_54">
     <path d="M 1030.311328 96.777031 
L 1060.311328 96.777031 
L 1060.311328 86.277031 
L 1030.311328 86.277031 
z
" style="fill: #006666"/>
    </g>
    <g id="text_37">
     <!-- &gt;80 -->
     <g transform="translate(1072.311328 96.777031) scale(0.15 -0.15)">
      <use xlink:href="#DejaVuSans-3e"/>
      <use xlink:href="#DejaVuSans-38" x="83.789062"/>
      <use xlink:href="#DejaVuSans-30" x="147.412109"/>
     </g>
    </g>
    <g id="patch_55">
     <path d="M 1030.311328 118.794219 
L 1060.311328 118.794219 
L 1060.311328 108.294219 
L 1030.311328 108.294219 
z
" style="fill: #008080"/>
    </g>
    <g id="text_38">
     <!-- &gt;70 -->
     <g transform="translate(1072.311328 118.794219) scale(0.15 -0.15)">
      <use xlink:href="#DejaVuSans-3e"/>
      <use xlink:href="#DejaVuSans-37" x="83.789062"/>
      <use xlink:href="#DejaVuSans-30" x="147.412109"/>
     </g>
    </g>
    <g id="patch_56">
     <path d="M 1030.311328 140.811406 
L 1060.311328 140.811406 
L 1060.311328 130.311406 
L 1030.311328 130.311406 
z
" style="fill: #33a3a3"/>
    </g>
    <g id="text_39">
     <!-- &gt;60 -->
     <g transform="translate(1072.311328 140.811406) scale(0.15 -0.15)">
      <use xlink:href="#DejaVuSans-3e"/>
      <use xlink:href="#DejaVuSans-36" x="83.789062"/>
      <use xlink:href="#DejaVuSans-30" x="147.412109"/>
     </g>
    </g>
    <g id="patch_57">
     <path d="M 1030.311328 162.828594 
L 1060.311328 162.828594 
L 1060.311328 152.328594 
L 1030.311328 152.328594 
z
" style="fill: #99d6d6"/>
    </g>
    <g id="text_40">
     <!-- &gt;50 -->
     <g transform="translate(1072.311328 162.828594) scale(0.15 -0.15)">
      <use xlink:href="#DejaVuSans-3e"/>
      <use xlink:href="#DejaVuSans-35" x="83.789062"/>
      <use xlink:href="#DejaVuSans-30" x="147.412109"/>
     </g>
    </g>
   </g>
  </g>
 </g>
 <defs>
  <clipPath id="pddb0efcf6c">
   <rect x="69.833594" y="26.877187" width="496.940909" height="350.92"/>
  </clipPath>
  <clipPath id="pa1e8fd08bf">
   <rect x="640.582685" y="26.877187" width="496.940909" height="350.92"/>
  </clipPath>
 </defs>
</svg>
